<?xml version="1.0" encoding="utf-8"?>
<!-- Generator: Adobe Illustrator 22.1.0, SVG Export Plug-In . SVG Version: 6.00 Build 0)  -->
<svg version="1.1" id="Layer_1" xmlns="http://www.w3.org/2000/svg" xmlns:xlink="http://www.w3.org/1999/xlink" x="0px" y="0px"
	 viewBox="0 0 33.1 38.1" style="enable-background:new 0 0 33.1 38.1;" xml:space="preserve">
<style type="text/css">
	.st0{enable-background:new    ;}
	.st1{fill:#FFFFFF;}
	.st2{fill:none;stroke:#666666;stroke-width:3.000000e-02;}
</style>
<g transform="matrix(1, 0, 0, 1, 0, 0)">
	<g class="st0">
		<path class="st1" d="M2.7,22.2v-6.9l6,3.4L2.7,22.2z M8.9,19.2v6.9l-6-3.4L8.9,19.2z M8.9,11.5v6.9L3,15L8.9,11.5z M9.4,18.4v-6.9
			l5.9,3.4L9.4,18.4z M15.6,22.2l-5.9-3.4l5.9-3.4V22.2z"/>
		<path class="st1" d="M23.9,18.4l-6-3.4l6-3.4V18.4z M17.9,22.6l6-3.4v6.9L17.9,22.6z M30.3,15l-5.9,3.4v-6.9L30.3,15z M30.3,22.6
			l-5.9,3.4v-6.9L30.3,22.6z"/>
	</g>
	<g class="st0">
		<path class="st2" d="M2.7,22.2v-6.9l6,3.4L2.7,22.2z M8.9,19.2v6.9l-6-3.4L8.9,19.2z M8.9,11.5v6.9L3,15L8.9,11.5z M9.4,18.4v-6.9
			l5.9,3.4L9.4,18.4z M15.6,22.2l-5.9-3.4l5.9-3.4V22.2z"/>
		<path class="st2" d="M23.9,18.4l-6-3.4l6-3.4V18.4z M17.9,22.6l6-3.4v6.9L17.9,22.6z M30.3,15l-5.9,3.4v-6.9L30.3,15z M30.3,22.6
			l-5.9,3.4v-6.9L30.3,22.6z"/>
	</g>
</g>
</svg>
