<svg xmlns="http://www.w3.org/2000/svg" viewBox="0 0 126.666 126.666">
  <defs>
    <style>
      .cls-1 {
        fill: #fffed8;
      }

      .cls-2 {
        fill: #f4534e;
      }

      .cls-3 {
        fill: #fff;
      }

      .cls-4 {
        fill: #66cdcc;
      }
    </style>
  </defs>
  <g id="Group_115" data-name="Group 115" transform="translate(-624 -496)">
    <circle id="Ellipse_28" data-name="Ellipse 28" class="cls-1" cx="63.333" cy="63.333" r="63.333" transform="translate(624 496)"/>
    <path id="Path_206" data-name="Path 206" class="cls-2" d="M202.332,805.883a8.077,8.077,0,0,0-4.929,4.929l-1.953-1.953,4.929-4.929Z" transform="translate(473.789 -276.111)"/>
    <path id="Path_207" data-name="Path 207" class="cls-2" d="M94.589,714.87l-4.929,4.924,2.491,2.5,4.929-4.929-2.491-2.491Z" transform="translate(606.652 -160.002)"/>
    <path id="Path_208" data-name="Path 208" class="cls-2" d="M196.022,795.054a1.469,1.469,0,0,1-.437,1.051l-.6.609-.456.456-.456.451-4.929,4.929-.451.48-.48.456-.61.6a1.486,1.486,0,1,1-2.1-2.1l7.962-7.962a1.483,1.483,0,0,1,2.1,0A1.44,1.44,0,0,1,196.022,795.054Z" transform="translate(479.193 -270.734)"/>
    <path id="Path_209" data-name="Path 209" class="cls-3" d="M223.664,841.08a3.12,3.12,0,1,0,3.115,3.12,3.12,3.12,0,0,0-3.115-3.12Z" transform="translate(460.741 -295.432)"/>
    <path id="Path_210" data-name="Path 210" class="cls-2" d="M224.481,935.4a5.96,5.96,0,0,0-1.061-2.2,5.562,5.562,0,0,0-.48-.566,5.084,5.084,0,0,0-.634-.566,6.009,6.009,0,0,0-7.65.259,4.655,4.655,0,0,0-.533.533,6.008,6.008,0,0,0-1.344,2.539Z" transform="translate(464.776 -342.101)"/>
    <path id="Path_211" data-name="Path 211" class="cls-2" d="M223.664,841.08a3.12,3.12,0,1,0,3.115,3.12,3.12,3.12,0,0,0-3.115-3.12Z" transform="translate(460.741 -295.432)"/>
    <path id="Path_212" data-name="Path 212" class="cls-4" d="M218.958,831.974a7.477,7.477,0,0,0-6.546,3.878c-.091.168-.178.336-.254.514a2.345,2.345,0,0,0-.115.274,2.792,2.792,0,0,0-.144.379,3.4,3.4,0,0,0-.12.374,2.5,2.5,0,0,0-.082.326,7.27,7.27,0,0,0-.206,1.723,7.419,7.419,0,0,0,1.161,3.988,5.88,5.88,0,0,0,.379.547,6.131,6.131,0,0,0,.427.509,7.444,7.444,0,0,0,5.5,2.4,7.276,7.276,0,0,0,1.723-.206,5.866,5.866,0,0,0,.7-.2,5.372,5.372,0,0,0,.648-.259,7.463,7.463,0,0,0-3.072-14.268Zm0,11.864a4.4,4.4,0,1,1,0,.01Z" transform="translate(465.447 -290.684)"/>
    <path id="Path_213" data-name="Path 213" class="cls-2" d="M202.332,805.883a8.077,8.077,0,0,0-4.929,4.929l-1.953-1.953,4.929-4.929Z" transform="translate(473.789 -276.111)"/>
    <path id="Path_214" data-name="Path 214" class="cls-4" d="M262.654,897.439a1.209,1.209,0,1,0,0-2.4h-18.54a1.209,1.209,0,0,0,0,2.4Z" transform="translate(449.03 -323.49)"/>
    <path id="Path_215" data-name="Path 215" class="cls-4" d="M201.5,878.536A15.06,15.06,0,0,1,194.785,850c-.139-.163-.269-.336-.389-.509s-.254-.36-.37-.547a8.638,8.638,0,0,1-1.267-4.531,8.223,8.223,0,0,1,.134-1.507c.038-.254.1-.5.158-.749a2.521,2.521,0,0,1,.158-.48l-.182-.182a23.584,23.584,0,0,0,1.6,44.561c.139-.187.288-.365.442-.538s.336-.355.518-.523a7.3,7.3,0,0,1,10.208.379,6.7,6.7,0,0,1,.48.562,6.227,6.227,0,0,1,.394.561,23.785,23.785,0,0,0,17.22-15.6h-9.282A15.012,15.012,0,0,1,201.5,878.536Z" transform="translate(482.901 -295.65)"/>
    <path id="Path_216" data-name="Path 216" class="cls-2" d="M223.294,944.435a.725.725,0,1,0,0-1.44H200.425a.725.725,0,0,0,0,1.44Z" transform="translate(471.536 -348.432)"/>
    <path id="Path_217" data-name="Path 217" class="cls-2" d="M212.774,811.667a6.672,6.672,0,0,0-4.761-1.977h0a7.214,7.214,0,0,0-.854.053,5.774,5.774,0,0,0-.763.144,6.762,6.762,0,0,0-4.929,4.929,5.776,5.776,0,0,0-.144.763,7.214,7.214,0,0,0-.053.854h0a6.671,6.671,0,0,0,1.977,4.761l2.64,2.64a8.749,8.749,0,1,1,11.792,11.8h0l4.665,4.665,1.4-1.392.456-.48.451-.48,4.929-4.929.456-.451.456-.48,1.392-1.4Z" transform="translate(470.763 -279.107)"/>
  </g>
</svg>
